<svg width="256" height="256" viewBox="0 0 256 256" fill="none" xmlns="http://www.w3.org/2000/svg">
<rect width="256" height="256" fill="#1E1E1E"/>
<path d="M193.574 70.2666C201.574 74.8854 201.574 86.4324 193.574 91.0512L133.574 125.692C125.574 130.311 115.574 124.538 115.574 115.3V46.0179C115.574 36.7803 125.574 31.0068 133.574 35.6256L193.574 70.2666Z" fill="white"/>
<path d="M61.5744 91.0512C53.5744 86.4324 53.5744 74.8854 61.5744 70.2666L121.574 35.6256C129.574 31.0068 139.574 36.7803 139.574 46.0179V115.3C139.574 124.538 129.574 130.311 121.574 125.692L61.5744 91.0512Z" fill="white"/>
<path d="M148 219.759C140 224.378 130 218.604 130 209.367V140.085C130 130.847 140 125.073 148 129.692L208 164.333C216 168.952 216 180.499 208 185.118L148 219.759Z" fill="white"/>
<path d="M196 95.0512C204 90.4324 214 96.2059 214 105.444V174.726C214 183.963 204 189.737 196 185.118L136 150.477C128 145.858 128 134.311 136 129.692L196 95.0512Z" fill="white"/>
<path d="M126 209.367C126 218.604 116 224.378 108 219.759L48 185.118C40 180.499 40 168.952 48 164.333L108 129.692C116 125.073 126 130.847 126 140.085L126 209.367Z" fill="white"/>
<path d="M42 105.444C42 96.2059 52 90.4324 60 95.0512L120 129.692C128 134.311 128 145.858 120 150.477L60 185.118C52 189.737 42 183.963 42 174.726L42 105.444Z" fill="white"/>
</svg>
